<svg xmlns="http://www.w3.org/2000/svg" xmlns:xlink="http://www.w3.org/1999/xlink" xml:space="preserve" id="svg13194" version="1.1" viewBox="0 0 128 128" height="128" width="128"><defs id="defs13191"><linearGradient id="linearGradient968"><stop id="stop964" offset="0.88487101" style="stop-color:#1c1616;stop-opacity:0;"></stop><stop id="stop966" offset="1" style="stop-color:#1c1616;stop-opacity:1;"></stop></linearGradient><linearGradient id="Ball"><stop id="stop950" offset="0" style="stop-color:#454833;stop-opacity:1;"></stop><stop id="stop952" offset="0.60951883" style="stop-color:#50bd66;stop-opacity:1;"></stop><stop id="stop954" offset="1" style="stop-color:#50bd66;stop-opacity:1;"></stop></linearGradient><radialGradient gradientTransform="translate(-45.712605,-287.11093)" gradientUnits="userSpaceOnUse" r="60" fy="221.30893" fx="64" cy="221.30893" cx="64" id="radialGradient10979" xlink:href="#Ball"></radialGradient><linearGradient id="Key"><stop id="stop10975" offset="0" style="stop-color:#50bd66;stop-opacity:0;"></stop><stop id="stop10973" offset="1" style="stop-color:#1c1616;stop-opacity:1;"></stop></linearGradient><radialGradient gradientTransform="matrix(1.1610924,-0.01939456,0.01963532,1.1755061,95.839574,0.19166912)" gradientUnits="userSpaceOnUse" r="60" fy="-55.780399" fx="-65.573082" cy="-55.780399" cx="-65.573082" id="radialGradient970" xlink:href="#linearGradient968"></radialGradient><radialGradient r="60" fy="-55.780399" fx="-65.573082" cy="-55.780399" cx="-65.573082" gradientTransform="matrix(1.1610924,-0.01939456,0.01963532,1.1755061,59.232705,101.93203)" gradientUnits="userSpaceOnUse" id="radialGradient906" xlink:href="#linearGradient968"></radialGradient><mask id="mask1" maskUnits="userSpaceOnUse"><circle r="60" cy="-51.110931" cx="18.287395" id="circle1" style="fill:#1c1616;stroke-width:1.51654"></circle></mask></defs><g id="layer1"><g transform="translate(45.712605,115.11093)" id="g15174"><circle r="60" cy="-51.110931" cx="18.287395" id="path8877" style="display:inline;fill:url(#radialGradient10979);fill-opacity:1;stroke-width:1.6455;enable-background:new"></circle><circle r="32" cy="-51.110931" cx="18.287395" id="path9615" style="display:inline;fill:#000000;fill-opacity:1;stroke-width:1.00164;enable-background:new"></circle><g style="font-size:65.5067px;display:inline;fill:#50bd66;stroke-width:5.4589;enable-background:new" id="text10869" aria-label="8"><path id="path174" style="font-weight:800;font-family:Cantarell;-inkscape-font-specification:'Cantarell Ultra-Bold'" d="m 17.992616,-27.725028 c 11.136139,0 18.472889,-5.633576 18.472889,-13.952926 0,-14.804514 -24.106465,-11.201646 -24.106465,-19.586503 0,-2.423748 2.227228,-4.192429 5.76459,-4.192429 3.537361,0 5.830096,1.768681 5.830096,4.519962 0,2.816788 -2.489255,4.781989 -6.15763,5.109523 l 7.664284,3.930402 c 6.092123,-2.227228 9.498471,-6.288643 9.498471,-11.136139 0,-6.878203 -6.681683,-11.463672 -16.245661,-11.463672 -10.4810718,0 -17.3592752,5.568069 -17.3592752,13.821913 0,15.132047 24.1064652,11.594686 24.1064652,19.65201 0,2.489254 -2.554761,4.257935 -6.74719,4.257935 -4.585469,0 -7.598777,-2.227228 -7.598777,-5.699083 0,-3.209828 2.620268,-5.044016 7.205737,-5.175029 l -6.485163,-4.126922 c -7.3367506,1.310134 -11.72569944,5.502563 -11.72569944,11.398166 0,7.53327 7.27124354,12.642792 17.88332844,12.642792 z"></path></g><circle r="60" cy="-50.870178" cx="18.303434" id="path962" style="opacity:0.2;fill:url(#radialGradient970);fill-opacity:1;stroke-width:1.69239"></circle><circle transform="scale(-1)" r="60" cy="50.870178" cx="-18.303434" id="circle904" style="opacity:0.15;fill:url(#radialGradient906);fill-opacity:1;stroke-width:1.69239"></circle></g></g></svg>